<svg width="24" height="24" viewBox="0 0 24 24" fill="none" xmlns="http://www.w3.org/2000/svg">
<path d="M13 3C13 2.44772 12.5522 2 12 2C11.4477 2 11 2.44772 11 3V4.5C11 4.52773 11.0011 4.5552 11.0033 4.58237C8.16394 5.05688 5.99995 7.52474 5.99995 10.4989V14.5C5.99995 15.0002 5.58984 15.8676 5.14104 16.6671C4.50952 17.7921 4.62518 19.1484 5.83086 19.6075C7.04348 20.0692 8.98321 20.5 12 20.5C15.0167 20.5 16.9564 20.0692 18.1691 19.6075C19.3747 19.1484 19.4904 17.7921 18.8589 16.6671C18.4101 15.8676 18 15.0002 18 14.5V10.4994C18 7.52522 15.836 5.05698 12.9966 4.58238C12.9988 4.55521 13 4.52774 13 4.5V3Z" fill="#66C61C"/>
<path d="M8.92006 21.3246C8.95739 21.3572 9.00246 21.3952 9.05496 21.4372C9.20525 21.5574 9.41997 21.7132 9.69133 21.8683C10.2299 22.176 11.0262 22.5 12 22.5C12.9738 22.5 13.77 22.176 14.3086 21.8683C14.58 21.7132 14.7947 21.5574 14.945 21.4372C14.9975 21.3952 15.0426 21.3572 15.0799 21.3246C14.2055 21.4335 13.186 21.5 12 21.5C10.814 21.5 9.79441 21.4335 8.92006 21.3246Z" fill="#66C61C"/>
</svg>
