<svg width="19" height="21" viewBox="0 0 19 21" fill="none" xmlns="http://www.w3.org/2000/svg">
<path fill-rule="evenodd" clip-rule="evenodd" d="M3 5C3 2.23858 5.23858 0 8 0C10.7614 0 13 2.23858 13 5C13 7.76142 10.7614 10 8 10C5.23858 10 3 7.76142 3 5ZM8 2C6.34315 2 5 3.34315 5 5C5 6.65685 6.34315 8 8 8C9.65685 8 11 6.65685 11 5C11 3.34315 9.65685 2 8 2Z" fill="#4F5E6E"/>
<path fill-rule="evenodd" clip-rule="evenodd" d="M2.55543 19.9174C4.22982 20.6502 6.4595 21 8 21C9.5405 21 11.7702 20.6502 13.4446 19.9174C14.2666 19.5576 15.1025 19.0427 15.5882 18.2974C15.8437 17.9054 16.0052 17.4437 15.9999 16.9282C15.9946 16.4174 15.8266 15.9281 15.5441 15.4728C14.1747 13.2656 11.3732 11 8 11C4.62679 11 1.82532 13.2656 0.455915 15.4728C0.173439 15.9281 0.00537077 16.4174 0.000126279 16.9282C-0.00516667 17.4437 0.156317 17.9054 0.411753 18.2974C0.897452 19.0427 1.73343 19.5576 2.55543 19.9174ZM2.00002 16.9487C2.00077 16.8757 2.02372 16.7394 2.15539 16.5272C3.27754 14.7185 5.51566 13 8 13C10.4843 13 12.7225 14.7185 13.8446 16.5272C13.9763 16.7394 13.9992 16.8757 14 16.9487C14.0007 17.017 13.9831 17.0973 13.9126 17.2055C13.7465 17.4605 13.3429 17.7787 12.6427 18.0852C11.2726 18.6848 9.32676 19 8 19C6.67324 19 4.72744 18.6848 3.35732 18.0852C2.65707 17.7787 2.25354 17.4605 2.08736 17.2055C2.01686 17.0973 1.99932 17.017 2.00002 16.9487Z" fill="#4F5E6E"/>
<path d="M18.6961 2.20709C19.0866 1.81657 19.0866 1.1834 18.6961 0.792879C18.3056 0.402354 17.6724 0.402353 17.2819 0.792876L15.3431 2.73161L15.0613 2.44973C14.6707 2.0592 14.0376 2.0592 13.647 2.44973C13.2565 2.84025 13.2565 3.47342 13.647 3.86394L14.636 4.85293C15.0266 5.24345 15.6597 5.24346 16.0503 4.85293L18.6961 2.20709Z" fill="#4F5E6E"/>
</svg>
