<svg width="24" height="24" viewBox="0 0 24 24" fill="none" xmlns="http://www.w3.org/2000/svg">
<path d="M14.6961 11.2057C15.0866 10.8152 15.0866 10.1821 14.6961 9.79153C14.3056 9.401 13.6724 9.401 13.2819 9.79152L11.3431 11.7303L11.0613 11.4484C10.6707 11.0578 10.0376 11.0578 9.64705 11.4484C9.25652 11.8389 9.25652 12.4721 9.64705 12.8626L10.636 13.8516C11.0266 14.2421 11.6597 14.2421 12.0503 13.8516L14.6961 11.2057Z" fill="#4F5E6E"/>
<path fill-rule="evenodd" clip-rule="evenodd" d="M13.4876 2.01739C12.5328 1.63483 11.4672 1.63483 10.5124 2.01739L6.88578 3.47038C6.87451 3.4749 6.86331 3.47962 6.8522 3.48455L5.30467 4.17103C3.94745 4.77308 2.99987 6.09868 3 7.64234C3.00017 9.60956 3.14199 12.9393 4.06685 15.2239C4.6818 16.743 5.78937 18.0596 6.91503 19.1118C8.04877 20.1715 9.25663 21.0143 10.1451 21.5753C11.2836 22.2942 12.7164 22.2942 13.8549 21.5753C14.7434 21.0143 15.9512 20.1715 17.085 19.1118C18.2106 18.0596 19.3182 16.743 19.9332 15.2239C20.858 12.9393 20.9998 9.60956 21 7.64234C21.0001 6.09868 20.0525 4.77308 18.6953 4.17103L17.1478 3.48455C17.1367 3.47962 17.1255 3.4749 17.1142 3.47038L13.4876 2.01739ZM11.2562 3.87393C11.7336 3.68265 12.2664 3.68265 12.7438 3.87393L16.3535 5.32014L17.8843 5.99923C18.5732 6.30478 19.0001 6.94752 19 7.64217C18.9998 9.62298 18.8415 12.5905 18.0793 14.4734C17.6173 15.6146 16.7387 16.6977 15.7193 17.6507C14.7079 18.596 13.6116 19.3636 12.7871 19.8842C12.3009 20.1912 11.6991 20.1912 11.2129 19.8842C10.3884 19.3636 9.29215 18.596 8.28075 17.6507C7.26127 16.6977 6.38268 15.6146 5.9207 14.4734C5.15846 12.5905 5.00017 9.62298 5 7.64217C4.99994 6.94752 5.42684 6.30478 6.11565 5.99923L7.64653 5.32014L11.2562 3.87393Z" fill="#4F5E6E"/>
</svg>
