<svg width="24" height="24" viewBox="0 0 24 24" fill="none" xmlns="http://www.w3.org/2000/svg">
<path fill-rule="evenodd" clip-rule="evenodd" d="M18.2898 5.08513L16.7423 4.39865L13.1157 2.94566C12.3996 2.65874 11.6004 2.65874 10.8843 2.94566L7.25769 4.39865L5.71016 5.08513C4.68715 5.53893 3.99991 6.5231 4 7.64225C4.00017 9.61627 4.15023 12.7649 4.99378 14.8486C6.0707 17.5089 8.96609 19.6482 10.679 20.7298C11.4913 21.2427 12.5087 21.2427 13.321 20.7298C15.0339 19.6482 17.9293 17.5089 19.0062 14.8486C19.8498 12.7649 19.9998 9.61627 20 7.64225C20.0001 6.5231 19.3129 5.53893 18.2898 5.08513ZM14.6961 11.2057C15.0866 10.8152 15.0866 10.1821 14.6961 9.79153C14.3056 9.401 13.6724 9.401 13.2819 9.79152L11.3431 11.7303L11.0613 11.4484C10.6707 11.0578 10.0376 11.0578 9.64705 11.4484C9.25652 11.8389 9.25652 12.4721 9.64705 12.8626L10.636 13.8516C11.0266 14.2421 11.6597 14.2421 12.0503 13.8516L14.6961 11.2057Z" fill="#66C61C"/>
</svg>
