<svg width="20" height="20" viewBox="0 0 20 20" fill="none" xmlns="http://www.w3.org/2000/svg">
<path fill-rule="evenodd" clip-rule="evenodd" d="M13.4483 0.900416C12.4107 0.752447 11.6665 1.61709 11.6665 2.50002V6.66668C11.6665 7.58716 12.4127 8.33335 13.3332 8.33335H17.4998C18.3828 8.33335 19.2474 7.58915 19.0994 6.55151C18.6825 3.62796 16.3719 1.31732 13.4483 0.900416ZM13.3332 2.50002C13.3325 2.50238 13.3299 2.5089 13.3205 2.51788C13.3124 2.52561 13.2979 2.53616 13.276 2.54359C13.2527 2.5515 13.2297 2.55277 13.2131 2.55039C13.2532 2.55612 13.2933 2.56233 13.3332 2.56902V6.66668H17.4308C17.4375 6.70656 17.4437 6.74661 17.4495 6.7868C17.4471 6.77014 17.4484 6.74719 17.4563 6.72385C17.4637 6.70193 17.4742 6.68742 17.482 6.67935C17.491 6.66996 17.4975 6.66743 17.4998 6.66681L17.4308 6.66668C17.08 4.57358 15.4263 2.91981 13.3332 2.56902V2.50002Z" fill="#66C61C"/>
<path fill-rule="evenodd" clip-rule="evenodd" d="M10.8332 3.33335C10.8332 2.44056 10.0887 1.60562 9.07643 1.71734C4.90821 2.17736 1.6665 5.70955 1.6665 10C1.6665 14.6024 5.39746 18.3333 9.99984 18.3333C14.2903 18.3333 17.8225 15.0916 18.2825 10.9234C18.3942 9.91115 17.5593 9.16668 16.6665 9.16668H12.4998C11.5794 9.16668 10.8332 8.42049 10.8332 7.50002V3.33335ZM3.33317 10C3.33317 6.60054 5.87829 3.79439 9.1665 3.38484V7.50002C9.1665 9.34096 10.6589 10.8333 12.4998 10.8333H16.615C16.2055 14.1216 13.3993 16.6667 9.99984 16.6667C6.31794 16.6667 3.33317 13.6819 3.33317 10Z" fill="#66C61C"/>
</svg>
