<svg width="21" height="20" viewBox="0 0 21 20" fill="none" xmlns="http://www.w3.org/2000/svg">
<path d="M0.292893 2.76777C-0.0976311 3.15829 -0.0976311 3.79146 0.292893 4.18198C0.683418 4.5725 1.31658 4.5725 1.70711 4.18198L4.18198 1.70711C4.5725 1.31658 4.5725 0.683417 4.18198 0.292893C3.79146 -0.0976311 3.15829 -0.0976311 2.76777 0.292893L0.292893 2.76777Z" fill="#3B7C0F"/>
<path d="M16.7802 0.530218C17.1707 0.139694 17.8039 0.139694 18.1944 0.530218L20.6693 3.00509C21.0598 3.39562 21.0598 4.02878 20.6693 4.41931C20.2788 4.80983 19.6456 4.80983 19.2551 4.41931L16.7802 1.94443C16.3897 1.55391 16.3897 0.920743 16.7802 0.530218Z" fill="#3B7C0F"/>
<path fill-rule="evenodd" clip-rule="evenodd" d="M10.4873 19.2373C15.4579 19.2373 19.4873 15.2079 19.4873 10.2373C19.4873 5.26676 15.4579 1.23732 10.4873 1.23732C5.51674 1.23732 1.4873 5.26676 1.4873 10.2373C1.4873 15.2079 5.51674 19.2373 10.4873 19.2373ZM10.4873 7.23732C10.4873 6.68504 10.0396 6.23732 9.4873 6.23732C8.93502 6.23732 8.4873 6.68504 8.4873 7.23732V12.2373C8.4873 12.7896 8.93502 13.2373 9.4873 13.2373H12.4873C13.0396 13.2373 13.4873 12.7896 13.4873 12.2373C13.4873 11.685 13.0396 11.2373 12.4873 11.2373H10.4873V7.23732Z" fill="#3B7C0F"/>
</svg>
