<svg width="24" height="24" viewBox="0 0 24 24" fill="none" xmlns="http://www.w3.org/2000/svg">
<path d="M1.80559 4.53046C1.41506 4.92099 1.41506 5.55415 1.80559 5.94468C2.19611 6.3352 2.82928 6.3352 3.2198 5.94468L5.69468 3.4698C6.0852 3.07928 6.0852 2.44611 5.69468 2.05559C5.30415 1.66506 4.67099 1.66506 4.28046 2.05559L1.80559 4.53046Z" fill="#9966CC"/>
<path d="M18.2929 2.29291C18.6834 1.90239 19.3166 1.90239 19.7071 2.29291L22.182 4.76779C22.5725 5.15831 22.5725 5.79148 22.182 6.182C21.7915 6.57253 21.1583 6.57253 20.7678 6.182L18.2929 3.70713C17.9024 3.3166 17.9024 2.68344 18.2929 2.29291Z" fill="#9966CC"/>
<path fill-rule="evenodd" clip-rule="evenodd" d="M12 21C16.9706 21 21 16.9706 21 12C21 7.02946 16.9706 3.00002 12 3.00002C7.02944 3.00002 3 7.02946 3 12C3 16.9706 7.02944 21 12 21ZM12 9.00002C12 8.44774 11.5523 8.00002 11 8.00002C10.4477 8.00002 10 8.44774 10 9.00002V14C10 14.5523 10.4477 15 11 15H14C14.5523 15 15 14.5523 15 14C15 13.4477 14.5523 13 14 13H12V9.00002Z" fill="#9966CC"/>
</svg>
