<svg width="24" height="24" viewBox="0 0 24 24" fill="none" xmlns="http://www.w3.org/2000/svg">
<path d="M1.80559 4.53046C1.41506 4.92099 1.41506 5.55415 1.80559 5.94468C2.19611 6.3352 2.82928 6.3352 3.2198 5.94468L5.69468 3.4698C6.0852 3.07928 6.0852 2.44611 5.69468 2.05559C5.30415 1.66506 4.67099 1.66506 4.28046 2.05559L1.80559 4.53046Z" fill="#2B323B"/>
<path d="M12 9.00002C12 8.44774 11.5523 8.00002 11 8.00002C10.4477 8.00002 10 8.44774 10 9.00002V14C10 14.5523 10.4477 15 11 15H14C14.5523 15 15 14.5523 15 14C15 13.4477 14.5523 13 14 13H12V9.00002Z" fill="#2B323B"/>
<path fill-rule="evenodd" clip-rule="evenodd" d="M12 2.00002C6.47715 2.00002 2 6.47717 2 12C2 17.5229 6.47715 22 12 22C17.5228 22 22 17.5229 22 12C22 6.47717 17.5228 2.00002 12 2.00002ZM4 12C4 7.58174 7.58172 4.00002 12 4.00002C16.4183 4.00002 20 7.58174 20 12C20 16.4183 16.4183 20 12 20C7.58172 20 4 16.4183 4 12Z" fill="#2B323B"/>
<path d="M18.2929 2.29291C18.6834 1.90239 19.3166 1.90239 19.7071 2.29291L22.182 4.76779C22.5725 5.15831 22.5725 5.79148 22.182 6.182C21.7915 6.57253 21.1583 6.57253 20.7678 6.182L18.2929 3.70713C17.9024 3.3166 17.9024 2.68344 18.2929 2.29291Z" fill="#2B323B"/>
</svg>
