<svg width="28" height="28" viewBox="0 0 28 28" fill="none" xmlns="http://www.w3.org/2000/svg">
<path d="M11.0831 2.0415C10.5982 2.0415 10.1638 2.34149 9.99207 2.795L9.72422 3.50232C9.15001 3.44495 8.62096 3.38768 8.19268 3.33959C7.87254 3.30365 7.60937 3.2729 7.42656 3.25119L7.21569 3.22588L7.14407 3.21712C6.50463 3.13795 5.92116 3.59202 5.84197 4.23146C5.76279 4.87091 6.21697 5.45347 6.85642 5.53266L6.93434 5.54219L7.15131 5.56823C7.33838 5.59045 7.60657 5.62178 7.93233 5.65836C8.58328 5.73145 9.4668 5.8258 10.3938 5.9104C11.6442 6.02452 13.0148 6.12484 13.9998 6.12484C14.9848 6.12484 16.3554 6.02452 17.6058 5.9104C18.5328 5.8258 19.4163 5.73145 20.0673 5.65836C20.393 5.62178 20.6612 5.59045 20.8483 5.56823L21.0653 5.54219L21.143 5.53268C21.7825 5.45349 22.2368 4.87091 22.1576 4.23146C22.0784 3.59202 21.4959 3.13784 20.8564 3.21701L20.7839 3.22588L20.573 3.25119C20.3902 3.2729 20.1271 3.30365 19.8069 3.33959C19.3786 3.38768 18.8496 3.44495 18.2754 3.50232L18.0075 2.795C17.8358 2.34149 17.4014 2.0415 16.9165 2.0415H11.0831Z" fill="#D42620"/>
<path d="M12.8331 13.7082C12.8331 13.0638 12.3108 12.5415 11.6665 12.5415C11.0221 12.5415 10.4998 13.0638 10.4998 13.7082V19.5415C10.4998 20.1858 11.0221 20.7082 11.6665 20.7082C12.3108 20.7082 12.8331 20.1858 12.8331 19.5415V13.7082Z" fill="#D42620"/>
<path d="M16.3331 12.5415C16.9775 12.5415 17.4998 13.0638 17.4998 13.7082V19.5415C17.4998 20.1858 16.9775 20.7082 16.3331 20.7082C15.6888 20.7082 15.1665 20.1858 15.1665 19.5415V13.7082C15.1665 13.0638 15.6888 12.5415 16.3331 12.5415Z" fill="#D42620"/>
<path fill-rule="evenodd" clip-rule="evenodd" d="M22.0611 9.39215C22.1668 7.91193 20.8906 6.72524 19.4403 6.89285C17.9563 7.06436 15.6662 7.2915 13.9998 7.2915C12.3334 7.2915 10.0433 7.06436 8.55929 6.89285C7.10897 6.72524 5.83281 7.91192 5.93854 9.39215L6.93806 23.3855C7.01383 24.4462 7.80393 25.3431 8.88821 25.5061C10.0509 25.681 12.1844 25.9603 14.0011 25.9582C15.7956 25.9561 17.9377 25.678 19.1056 25.5048C20.1917 25.3436 20.9858 24.4462 21.0618 23.3823L22.0611 9.39215ZM19.7082 9.21076C19.7122 9.21029 19.7153 9.21057 19.7153 9.21057L19.7184 9.21127C19.721 9.21216 19.7251 9.21429 19.7291 9.21811C19.7318 9.22063 19.7337 9.22371 19.7337 9.22371L19.7337 9.22591L18.7354 23.2008C17.5796 23.3716 15.5987 23.623 13.9984 23.6248C12.3808 23.6267 10.4121 23.375 9.26431 23.2031L8.26594 9.22591L8.26585 9.22371C8.26585 9.22371 8.26784 9.22063 8.2705 9.21811C8.27452 9.21429 8.27859 9.21216 8.28118 9.21127L8.28426 9.21057C8.28426 9.21057 8.28737 9.21029 8.29141 9.21076C9.77808 9.38257 12.1861 9.62484 13.9998 9.62484C15.8134 9.62484 18.2215 9.38257 19.7082 9.21076Z" fill="#D42620"/>
</svg>
