<svg width="19" height="19" viewBox="0 0 19 19" fill="none" xmlns="http://www.w3.org/2000/svg">
<g clip-path="url(#clip0_50_2314)">
<rect width="19" height="19" rx="4" fill="#DFF1EB"/>
<mask id="mask0_50_2314" style="mask-type:luminance" maskUnits="userSpaceOnUse" x="4" y="4" width="11" height="11">
<rect x="4" y="4" width="11" height="11" fill="white"/>
</mask>
<g mask="url(#mask0_50_2314)">
<path fill-rule="evenodd" clip-rule="evenodd" d="M13.5106 7.66651V9.49984C13.5106 9.68969 13.3567 9.84359 13.1669 9.84359C12.977 9.84359 12.8231 9.68969 12.8231 9.49984V8.71348L11.1431 10.9961C11.0871 11.0723 11.0021 11.122 10.9083 11.1335C10.8145 11.1451 10.72 11.1175 10.6472 11.0573L8.2467 9.07223L6.11105 11.9943C5.99903 12.1476 5.78396 12.1811 5.63068 12.069C5.47741 11.957 5.44397 11.7419 5.55599 11.5887L7.90699 8.37192C7.96289 8.29543 8.04788 8.24541 8.14188 8.23366C8.23589 8.22191 8.33058 8.24947 8.40358 8.30985L10.805 10.2957L12.3242 8.2315L11.4169 8.45833C11.2327 8.50437 11.0461 8.39239 11 8.20821C10.954 8.02403 11.066 7.8374 11.2501 7.79135L13.0835 7.33302C13.1862 7.30735 13.295 7.33042 13.3784 7.39556C13.4618 7.4607 13.5106 7.56065 13.5106 7.66651Z" fill="#4AB58E"/>
</g>
</g>
<defs>
<clipPath id="clip0_50_2314">
<rect width="19" height="19" fill="white"/>
</clipPath>
</defs>
</svg>
