<svg width="15" height="16" viewBox="0 0 15 16" fill="none" xmlns="http://www.w3.org/2000/svg">
<path fill-rule="evenodd" clip-rule="evenodd" d="M4.5 0C4.91421 0 5.25 0.335786 5.25 0.75V1.5H9.75V0.75C9.75 0.335786 10.0858 0 10.5 0C10.9142 0 11.25 0.335786 11.25 0.75V1.5H12C13.6569 1.5 15 2.84315 15 4.5V12.75C15 14.4069 13.6569 15.75 12 15.75H3C1.34315 15.75 0 14.4069 0 12.75V4.5C0 2.84315 1.34315 1.5 3 1.5H3.75V0.75C3.75 0.335786 4.08579 0 4.5 0ZM9.75 3C9.75 3.41421 10.0858 3.75 10.5 3.75C10.9142 3.75 11.25 3.41421 11.25 3H12C12.8284 3 13.5 3.67157 13.5 4.5V4.875H1.5V4.5C1.5 3.67157 2.17157 3 3 3H3.75C3.75 3.41421 4.08579 3.75 4.5 3.75C4.91421 3.75 5.25 3.41421 5.25 3H9.75ZM13.5 6.375H1.5V12.75C1.5 13.5784 2.17157 14.25 3 14.25H12C12.8284 14.25 13.5 13.5784 13.5 12.75V6.375Z" fill="black"/>
</svg>
