<svg width="20" height="20" viewBox="0 0 20 20" fill="none" xmlns="http://www.w3.org/2000/svg">
<mask id="mask0_4109_124874" style="mask-type:luminance" maskUnits="userSpaceOnUse" x="0" y="0" width="20" height="20">
<rect width="20" height="20" fill="white"/>
</mask>
<g mask="url(#mask0_4109_124874)">
<path opacity="0.4" d="M16.2178 1.6665C17.3863 1.6665 18.3333 2.62138 18.3333 3.7998V6.64527C18.3333 7.8237 17.3863 8.77859 16.2178 8.77859H13.3962C12.2276 8.77859 11.2808 7.8237 11.2808 6.64527V3.7998C11.2808 2.62138 12.2276 1.6665 13.3962 1.6665H16.2178Z" fill="#66C61C"/>
<path fill-rule="evenodd" clip-rule="evenodd" d="M6.60358 1.6665C7.77214 1.6665 8.719 2.62138 8.719 3.7998V6.64527C8.719 7.8237 7.77214 8.77859 6.60358 8.77859H3.78194C2.61339 8.77859 1.6665 7.8237 1.6665 6.64527V3.7998C1.6665 2.62138 2.61339 1.6665 3.78194 1.6665H6.60358ZM6.60358 11.2211C7.77214 11.2211 8.719 12.176 8.719 13.3544V16.1998C8.719 17.3775 7.77214 18.3332 6.60358 18.3332H3.78194C2.61339 18.3332 1.6665 17.3775 1.6665 16.1998V13.3544C1.6665 12.176 2.61339 11.2211 3.78194 11.2211H6.60358ZM13.3961 11.2211C12.2275 11.2211 11.2807 12.176 11.2807 13.3544V16.1998C11.2807 17.3775 12.2275 18.3332 13.3961 18.3332H16.2178C17.3863 18.3332 18.3332 17.3775 18.3332 16.1998V13.3544C18.3332 12.176 17.3863 11.2211 16.2178 11.2211H13.3961Z" fill="#66C61C"/>
</g>
</svg>
