<svg width="184" height="184" viewBox="0 0 184 184" fill="none" xmlns="http://www.w3.org/2000/svg">
<path fill-rule="evenodd" clip-rule="evenodd" d="M92 152C125.137 152 152 125.137 152 92C152 58.8629 125.137 32 92 32C58.8629 32 32 58.8629 32 92C32 125.137 58.8629 152 92 152ZM116.503 83.583C119.218 81.0962 119.403 76.8792 116.916 74.164C114.43 71.4488 110.213 71.2636 107.497 73.7503L89.2643 90.4492C85.6532 93.7565 80.1137 93.7565 76.5027 90.4492C73.7875 87.9625 69.5704 88.1477 67.0837 90.8629C64.5969 93.5781 64.7821 97.7951 67.4973 100.282L78.3808 110.25C80.929 112.583 84.838 112.583 87.3861 110.25L116.503 83.583Z" fill="#1FC16B"/>
<path d="M92 16C133.974 16 168 50.0264 168 92C168 133.974 133.974 168 92 168C50.0264 168 16 133.974 16 92C16 50.0264 50.0264 16 92 16Z" stroke="#1FC16B" stroke-opacity="0.1" stroke-width="32"/>
</svg>
