<svg width="20" height="17" viewBox="0 0 20 17" fill="none" xmlns="http://www.w3.org/2000/svg">
<path d="M11.6945 10C14.4559 10 16.6945 7.76142 16.6945 5C16.6945 2.23858 14.4559 0 11.6945 0C8.93305 0 6.69447 2.23858 6.69447 5C6.69447 7.76142 8.93305 10 11.6945 10Z" fill="#3B7C0F"/>
<path d="M5.84988 16.5272C5.55871 16.9965 4.94223 17.1409 4.47293 16.8497C4.00363 16.5586 3.85923 15.9421 4.1504 15.4728C5.5198 13.2656 8.32127 11 11.6945 11C15.0677 11 17.8692 13.2656 19.2386 15.4728C19.5297 15.9421 19.3853 16.5586 18.916 16.8497C18.4467 17.1409 17.8303 16.9965 17.5391 16.5272C16.4169 14.7185 14.1788 13 11.6945 13C9.21015 13 6.97203 14.7185 5.84988 16.5272Z" fill="#3B7C0F"/>
<path d="M5.59233 2.55972C5.83549 3.05559 5.63063 3.6547 5.13476 3.89786C4.22609 4.34344 3.69447 5.15179 3.69447 6C3.69447 6.84821 4.22609 7.65656 5.13476 8.10214C5.63063 8.3453 5.83549 8.94441 5.59233 9.44028C5.34917 9.93616 4.75006 10.141 4.25419 9.89786C2.77738 9.17368 1.69447 7.73353 1.69447 6C1.69447 4.26647 2.77738 2.82632 4.25419 2.10214C4.75006 1.85898 5.34917 2.06384 5.59233 2.55972Z" fill="#3B7C0F"/>
<path d="M1.84988 16.5272C1.55871 16.9965 0.94223 17.1409 0.472932 16.8497C0.0036349 16.5586 -0.140768 15.9421 0.150399 15.4728C0.729493 14.5394 1.65603 13.7604 2.68971 13.1559C3.16647 12.8772 3.77895 13.0377 4.05773 13.5144C4.33652 13.9912 4.17602 14.6037 3.69926 14.8824C2.83555 15.3875 2.20008 15.9627 1.84988 16.5272Z" fill="#3B7C0F"/>
</svg>
