<svg width="20" height="20" viewBox="0 0 20 20" fill="none" xmlns="http://www.w3.org/2000/svg">
<path fill-rule="evenodd" clip-rule="evenodd" d="M13.5 0C12.1193 0 11 1.11929 11 2.5V17.5C11 18.8807 12.1193 20 13.5 20H17.5C18.8807 20 20 18.8807 20 17.5V2.5C20 1.11929 18.8807 0 17.5 0H13.5ZM13 2.5C13 2.22386 13.2239 2 13.5 2H17.5C17.7761 2 18 2.22386 18 2.5V17.5C18 17.7761 17.7761 18 17.5 18H13.5C13.2239 18 13 17.7761 13 17.5V2.5Z" fill="#036732"/>
<path fill-rule="evenodd" clip-rule="evenodd" d="M2.5 9C1.11929 9 0 10.1193 0 11.5V17.5C0 18.8807 1.11929 20 2.5 20H6.5C7.88071 20 9 18.8807 9 17.5V11.5C9 10.1193 7.88071 9 6.5 9H2.5ZM2 11.5C2 11.2239 2.22386 11 2.5 11H6.5C6.77614 11 7 11.2239 7 11.5V17.5C7 17.7761 6.77614 18 6.5 18H2.5C2.22386 18 2 17.7761 2 17.5V11.5Z" fill="#036732"/>
</svg>
