<svg width="12" height="22" viewBox="0 0 12 22" fill="none" xmlns="http://www.w3.org/2000/svg">
<path fill-rule="evenodd" clip-rule="evenodd" d="M7 1C7 0.447715 6.55228 0 6 0C5.44772 0 5 0.447715 5 1V2C2.23858 2 0 4.23858 0 7C0 9.76142 2.23858 12 5 12V18C3.34315 18 2 16.6569 2 15C2 14.4477 1.55228 14 1 14C0.447715 14 0 14.4477 0 15C0 17.7614 2.23858 20 5 20V21C5 21.5523 5.44772 22 6 22C6.55228 22 7 21.5523 7 21V20C9.76142 20 12 17.7614 12 15C12 12.2386 9.76142 10 7 10V4C8.65685 4 10 5.34315 10 7C10 7.55228 10.4477 8 11 8C11.5523 8 12 7.55228 12 7C12 4.23858 9.76142 2 7 2V1ZM5 4C3.34315 4 2 5.34315 2 7C2 8.65685 3.34315 10 5 10V4ZM7 12V18C8.65685 18 10 16.6569 10 15C10 13.3431 8.65685 12 7 12Z" fill="#D00416"/>
</svg>
