<svg width="20" height="20" viewBox="0 0 20 20" fill="none" xmlns="http://www.w3.org/2000/svg">
<path d="M10 6.5C10 5.94772 9.55229 5.5 9 5.5C8.44771 5.5 8 5.94772 8 6.5V11.5C8 12.0523 8.44771 12.5 9 12.5H12C12.5523 12.5 13 12.0523 13 11.5C13 10.9477 12.5523 10.5 12 10.5H10V6.5Z" fill="#9966CC"/>
<path fill-rule="evenodd" clip-rule="evenodd" d="M10 0C4.47715 0 0 4.47715 0 10C0 15.5228 4.47715 20 10 20C15.5228 20 20 15.5228 20 10C20 4.47715 15.5228 0 10 0ZM2 10C2 5.58172 5.58172 2 10 2C14.4183 2 18 5.58172 18 10C18 14.4183 14.4183 18 10 18C5.58172 18 2 14.4183 2 10Z" fill="#9966CC"/>
</svg>
