<svg width="48" height="48" viewBox="0 0 48 48" fill="none" xmlns="http://www.w3.org/2000/svg">
<path d="M36 0L44 8V46C44 47.1046 43.1046 48 42 48H6C4.89543 48 4 47.1046 4 46V2C4 0.895431 4.89543 1.61064e-08 6 0H36Z" fill="#E4E7EC"/>
<path d="M44 8H36V0L44 8Z" fill="#98A2B3"/>
<rect x="2" y="20" width="44" height="20" rx="2" fill="#CC400C"/>
<path d="M9.32764 35.818V24.1816H13.6913C14.5852 24.1816 15.3352 24.3483 15.9413 24.6816C16.5511 25.015 17.0113 25.4733 17.322 26.0566C17.6363 26.6362 17.7935 27.2953 17.7935 28.0339C17.7935 28.7801 17.6363 29.443 17.322 30.0226C17.0076 30.6021 16.5435 31.0585 15.9299 31.3919C15.3163 31.7214 14.5606 31.8862 13.6629 31.8862H10.7708V30.1532H13.3788C13.9015 30.1532 14.3295 30.0623 14.6629 29.8805C14.9962 29.6987 15.2424 29.4487 15.4015 29.1305C15.5644 28.8123 15.6458 28.4468 15.6458 28.0339C15.6458 27.621 15.5644 27.2574 15.4015 26.943C15.2424 26.6286 14.9943 26.3843 14.6572 26.21C14.3238 26.032 13.8939 25.943 13.3674 25.943H11.4356V35.818H9.32764Z" fill="white"/>
<path d="M23.5677 35.818H19.6245V24.1816H23.6472C24.8025 24.1816 25.795 24.4146 26.6245 24.8805C27.4578 25.3426 28.098 26.0074 28.545 26.8748C28.9919 27.7422 29.2154 28.7801 29.2154 29.9885C29.2154 31.2006 28.99 32.2422 28.5393 33.1135C28.0923 33.9847 27.4465 34.6532 26.6018 35.1191C25.7609 35.585 24.7495 35.818 23.5677 35.818ZM21.7325 33.9941H23.4654C24.276 33.9941 24.9522 33.8464 25.4938 33.551C26.0355 33.2517 26.4427 32.8066 26.7154 32.2157C26.9881 31.621 27.1245 30.8786 27.1245 29.9885C27.1245 29.0983 26.9881 28.3597 26.7154 27.7725C26.4427 27.1816 26.0393 26.7404 25.5052 26.4487C24.9749 26.1532 24.3158 26.0055 23.5279 26.0055H21.7325V33.9941Z" fill="white"/>
<path d="M31.2183 35.818V24.1816H38.6728V25.9487H33.3262V29.1078H38.1614V30.8748H33.3262V35.818H31.2183Z" fill="white"/>
</svg>
