<svg width="56" height="56" viewBox="0 0 56 56" fill="none" xmlns="http://www.w3.org/2000/svg">
<circle cx="28" cy="28" r="28" fill="#F0F2F5"/>
<path d="M21.0001 25.0835C21.0001 21.5397 23.8729 18.6668 27.4167 18.6668C30.5559 18.6668 33.1708 20.9222 33.7249 23.9013C33.8027 24.319 34.1014 24.6615 34.5047 24.7953C36.8272 25.5656 38.5001 27.7557 38.5001 30.3335C38.5001 33.5552 35.8884 36.1668 32.6667 36.1668C32.0224 36.1668 31.5001 36.6892 31.5001 37.3335C31.5001 37.9778 32.0224 38.5002 32.6667 38.5002C37.1771 38.5002 40.8334 34.8438 40.8334 30.3335C40.8334 26.959 38.7874 24.065 35.8708 22.8197C34.8727 19.0845 31.4671 16.3335 27.4167 16.3335C22.5843 16.3335 18.6667 20.251 18.6667 25.0835C18.6667 25.2005 18.6691 25.317 18.6736 25.433C16.579 26.6415 15.1667 28.9048 15.1667 31.5002C15.1667 35.3662 18.3008 38.5002 22.1667 38.5002C22.8111 38.5002 23.3334 37.9778 23.3334 37.3335C23.3334 36.6892 22.8111 36.1668 22.1667 36.1668C19.5894 36.1668 17.5001 34.0775 17.5001 31.5002C17.5001 29.5666 18.6763 27.9051 20.3568 27.1971C20.8432 26.9923 21.1314 26.4865 21.0598 25.9637C21.0205 25.6765 21.0001 25.3827 21.0001 25.0835Z" fill="#475367"/>
<path d="M27.225 30.6282C27.667 30.2353 28.3331 30.2353 28.7752 30.6282L30.5252 32.1837C31.0068 32.6118 31.0501 33.3492 30.6221 33.8308C30.2476 34.2521 29.6363 34.338 29.1667 34.0663V39.6668C29.1667 40.3112 28.6444 40.8335 28.0001 40.8335C27.3557 40.8335 26.8334 40.3112 26.8334 39.6668V34.0663C26.3638 34.338 25.7526 34.2521 25.3781 33.8308C24.95 33.3492 24.9934 32.6118 25.475 32.1837L27.225 30.6282Z" fill="#475367"/>
</svg>
