<svg width="20" height="18" viewBox="0 0 20 18" fill="none" xmlns="http://www.w3.org/2000/svg">
<path fill-rule="evenodd" clip-rule="evenodd" d="M3.56692 0C1.59696 0 0 1.59696 0 3.56692V14C0 16.2091 1.79086 18 4 18H16C18.2091 18 20 16.2091 20 14V7.2C20 4.99146 18.2111 3.2 16.0014 3.2H10.3995C10.3825 3.19236 10.3617 3.18266 10.3384 3.17076C10.29 3.14614 10.243 3.11913 10.2057 3.09557C10.1887 3.0848 10.1765 3.07653 10.1691 3.07132C10.0298 2.94676 9.82647 2.73301 9.54468 2.43229L9.48973 2.37363C9.22847 2.0947 8.9235 1.76909 8.60978 1.46035C8.277 1.13287 7.9043 0.794055 7.52848 0.531582C7.18934 0.294724 6.68354 0 6.11436 0H3.56692ZM8.0853 3.79984C8.35024 4.08258 8.6304 4.38114 8.85788 4.58162C9.01954 4.72409 9.24992 4.86084 9.43054 4.95285C9.53107 5.00406 9.64796 5.05773 9.76875 5.10103C9.86554 5.13573 10.0606 5.2 10.2847 5.2H16.0014C17.1053 5.2 18 6.09484 18 7.2V14C18 15.1046 17.1046 16 16 16H4C2.89543 16 2 15.1046 2 14V3.56692C2 2.70153 2.70153 2 3.56692 2H6.08408C6.08497 2.00067 6.088 2.00191 6.09324 2.00403C6.12153 2.01554 6.21433 2.05326 6.38332 2.17128C6.62291 2.33861 6.9026 2.58635 7.20694 2.88585C7.49043 3.16484 7.76928 3.46251 8.03574 3.74694L8.0853 3.79984Z" fill="#9966CC"/>
</svg>
