<svg width="36" height="36" viewBox="0 0 36 36" fill="none" xmlns="http://www.w3.org/2000/svg">
<rect width="36" height="36" rx="8" fill="#F2F0F5"/>
<path fill-rule="evenodd" clip-rule="evenodd" d="M25.1637 10.4246C24.0415 9.30247 22.2222 9.30247 21.1 10.4246L13.9955 17.5292C13.4855 18.0392 13.1546 18.7008 13.0526 19.4148L12.8468 20.8559C12.6896 21.9559 13.6324 22.8987 14.7324 22.7416L16.1735 22.5357C16.8875 22.4337 17.5492 22.1029 18.0591 21.5929L25.1637 14.4883C26.2859 13.3662 26.2859 11.5468 25.1637 10.4246ZM22.4531 11.4584C22.9228 11.1382 23.5685 11.1864 23.9852 11.6031C24.4019 12.0199 24.4502 12.6655 24.1299 13.1352L22.4531 11.4584ZM21.2597 12.622L22.9663 14.3287L16.8806 20.4144C16.6256 20.6694 16.2948 20.8348 15.9378 20.8858L14.4967 21.0916L14.7026 19.6505C14.7536 19.2935 14.919 18.9627 15.174 18.7077L21.2597 12.622Z" fill="#2B323B"/>
<path d="M13.0003 9.6663C11.1594 9.6663 9.66699 11.1587 9.66699 12.9996V22.9996C9.66699 24.8406 11.1594 26.333 13.0003 26.333H23.0003C24.8413 26.333 26.3337 24.8406 26.3337 22.9996V17.9996C26.3337 17.5394 25.9606 17.1663 25.5003 17.1663C25.0401 17.1663 24.667 17.5394 24.667 17.9996V22.9996C24.667 23.9201 23.9208 24.6663 23.0003 24.6663H13.0003C12.0799 24.6663 11.3337 23.9201 11.3337 22.9996V12.9996C11.3337 12.0792 12.0799 11.333 13.0003 11.333H15.2372C15.6974 11.333 16.0705 10.9599 16.0705 10.4996C16.0705 10.0394 15.6974 9.6663 15.2372 9.6663H13.0003Z" fill="#2B323B"/>
</svg>
