<svg width="24" height="28" viewBox="0 0 24 28" fill="none" xmlns="http://www.w3.org/2000/svg">
<path fill-rule="evenodd" clip-rule="evenodd" d="M13.9999 7C10.6862 7 7.99989 9.68629 7.99989 13C7.99989 16.3137 10.6862 19 13.9999 19C17.3136 19 19.9999 16.3137 19.9999 13C19.9999 9.68629 17.3136 7 13.9999 7ZM9.99989 13C9.99989 10.7909 11.7908 9 13.9999 9C16.209 9 17.9999 10.7909 17.9999 13C17.9999 15.2091 16.209 17 13.9999 17C11.7908 17 9.99989 15.2091 9.99989 13Z" fill="#8898AA"/>
<path d="M8.1553 24.5272C7.86413 24.9965 7.24765 25.1409 6.77835 24.8497C6.30905 24.5586 6.16465 23.9421 6.45582 23.4728C7.82522 21.2656 10.6267 19 13.9999 19C17.3731 19 20.1746 21.2656 21.544 23.4728C21.8352 23.9421 21.6908 24.5586 21.2215 24.8497C20.7522 25.1409 20.1357 24.9965 19.8445 24.5272C18.7224 22.7185 16.4842 21 13.9999 21C11.5156 21 9.27745 22.7185 8.1553 24.5272Z" fill="#8898AA"/>
<path d="M7.89775 10.5597C8.14091 11.0556 7.93605 11.6547 7.44018 11.8979C6.53151 12.3434 5.99989 13.1518 5.99989 14C5.99989 14.8482 6.53151 15.6566 7.44018 16.1021C7.93605 16.3453 8.14091 16.9444 7.89775 17.4403C7.65459 17.9362 7.05548 18.141 6.55961 17.8979C5.0828 17.1737 3.99989 15.7335 3.99989 14C3.99989 12.2665 5.0828 10.8263 6.55961 10.1021C7.05548 9.85898 7.65459 10.0638 7.89775 10.5597Z" fill="#8898AA"/>
<path d="M4.1553 24.5272C3.86413 24.9965 3.24765 25.1409 2.77835 24.8497C2.30905 24.5586 2.16465 23.9421 2.45582 23.4728C3.03491 22.5394 3.96145 21.7604 4.99513 21.1559C5.47189 20.8772 6.08437 21.0377 6.36315 21.5144C6.64194 21.9912 6.48144 22.6037 6.00468 22.8824C5.14097 23.3875 4.5055 23.9627 4.1553 24.5272Z" fill="#8898AA"/>
</svg>
