<svg width="24" height="28" viewBox="0 0 24 28" fill="none" xmlns="http://www.w3.org/2000/svg">
<path fill-rule="evenodd" clip-rule="evenodd" d="M12 9C9.79084 9 7.99998 10.7909 7.99998 13C7.99998 15.2091 9.79084 17 12 17C14.2091 17 16 15.2091 16 13C16 10.7909 14.2091 9 12 9ZM9.99998 13C9.99998 11.8954 10.8954 11 12 11C13.1045 11 14 11.8954 14 13C14 14.1046 13.1045 15 12 15C10.8954 15 9.99998 14.1046 9.99998 13Z" fill="#8898AA"/>
<path fill-rule="evenodd" clip-rule="evenodd" d="M12 26C10.8631 26 9.22385 25.7313 7.97982 25.1596C7.36958 24.8792 6.7148 24.4632 6.32857 23.8409C6.12468 23.5124 5.99586 23.1251 6.00008 22.6941C6.00425 22.2672 6.13813 21.8623 6.35737 21.4913C7.35984 19.7947 9.43952 18 12 18C14.5604 18 16.6401 19.7947 17.6426 21.4913C17.8618 21.8623 17.9957 22.2672 17.9999 22.6941C18.0041 23.1251 17.8753 23.5124 17.6714 23.8409C17.2852 24.4632 16.6304 24.8792 16.0201 25.1596C14.7761 25.7313 13.1369 26 12 26ZM8.07924 22.5087C8.00265 22.6383 8.00009 22.7027 7.99998 22.7136C7.99989 22.7209 7.99965 22.7407 8.02789 22.7862C8.10729 22.9142 8.33788 23.1231 8.81496 23.3423C9.74558 23.77 11.0888 24 12 24C12.9111 24 14.2544 23.77 15.185 23.3423C15.6621 23.1231 15.8927 22.9142 15.9721 22.7862C16.0003 22.7407 16.0001 22.7214 16 22.7141C15.9999 22.7032 15.9973 22.6383 15.9207 22.5087C15.1435 21.1934 13.6235 20 12 20C10.3765 20 8.85644 21.1934 8.07924 22.5087Z" fill="#8898AA"/>
<path fill-rule="evenodd" clip-rule="evenodd" d="M2.49998 16C2.49998 14.3431 3.84312 13 5.49998 13C7.15683 13 8.49998 14.3431 8.49998 16C8.49998 17.6569 7.15683 19 5.49998 19C3.84312 19 2.49998 17.6569 2.49998 16ZM5.49998 15C4.94769 15 4.49998 15.4477 4.49998 16C4.49998 16.5523 4.94769 17 5.49998 17C6.05226 17 6.49998 16.5523 6.49998 16C6.49998 15.4477 6.05226 15 5.49998 15Z" fill="#8898AA"/>
<path d="M2.89571 23.4446C2.65017 23.9393 2.05008 24.1413 1.55538 23.8957C1.06068 23.6502 0.858703 23.0501 1.10424 22.5554C1.47163 21.8152 2.0277 21.0721 2.72723 20.5034C3.42702 19.9346 4.32375 19.5 5.34715 19.5C5.89943 19.5 6.34715 19.9477 6.34715 20.5C6.34715 21.0523 5.89943 21.5 5.34715 21.5C4.90617 21.5 4.44075 21.688 3.98878 22.0554C3.53653 22.423 3.15121 22.9298 2.89571 23.4446Z" fill="#8898AA"/>
<path fill-rule="evenodd" clip-rule="evenodd" d="M15.81 16C15.81 14.3431 17.1532 13 18.81 13C20.4669 13 21.81 14.3431 21.81 16C21.81 17.6569 20.4669 19 18.81 19C17.1532 19 15.81 17.6569 15.81 16ZM18.81 15C18.2578 15 17.81 15.4477 17.81 16C17.81 16.5523 18.2578 17 18.81 17C19.3623 17 19.81 16.5523 19.81 16C19.81 15.4477 19.3623 15 18.81 15Z" fill="#8898AA"/>
<path d="M22.9001 22.5554C23.1457 23.0501 22.9437 23.6502 22.449 23.8957C21.9543 24.1413 21.3542 23.9393 21.1086 23.4446C20.8531 22.9298 20.4678 22.423 20.0156 22.0554C19.5636 21.688 19.0982 21.5 18.6572 21.5C18.1049 21.5 17.6572 21.0523 17.6572 20.5C17.6572 19.9477 18.1049 19.5 18.6572 19.5C19.6806 19.5 20.5773 19.9346 21.2771 20.5034C21.9767 21.0721 22.5327 21.8152 22.9001 22.5554Z" fill="#8898AA"/>
</svg>
