<svg width="63" height="47" viewBox="0 0 63 47" fill="none" xmlns="http://www.w3.org/2000/svg">
<path fill-rule="evenodd" clip-rule="evenodd" d="M22.0837 42.7808C25.5763 42.5809 28.9393 41.3385 31.7373 39.2008L33.8334 41.9777C30.1661 44.7795 25.6878 46.2962 21.0829 46.2962C9.4469 46.2962 0 36.7922 0 25.0859C0 15.248 6.67191 6.96566 15.708 4.57228V0.757868C15.708 0.339544 16.0457 0 16.4618 0H25.8854C26.3015 0 26.6391 0.339544 26.6391 0.757868V4.62059C26.6391 4.62142 26.6391 4.62214 26.6391 4.62297C34.061 6.6617 39.9695 12.6961 41.6784 20.551L38.2927 21.2965C37.6347 18.272 36.2316 15.5706 34.303 13.3699C34.2663 13.4221 34.2234 13.4713 34.1744 13.5161L32.1191 15.4C31.7536 15.7351 31.1863 15.7086 30.8531 15.3412C30.52 14.9736 30.5462 14.4033 30.9117 14.0682L32.967 12.1843C33.0008 12.1533 33.0363 12.1253 33.0732 12.1006C30.1179 9.33982 26.2375 7.61071 22.0177 7.38709C22.0378 7.45974 22.0489 7.53623 22.05 7.61519L22.0901 10.4113C22.0972 10.9086 21.7015 11.3182 21.2069 11.3253C20.7125 11.3324 20.3051 10.9345 20.298 10.4372L20.2579 7.64108C20.2566 7.5505 20.2687 7.46276 20.2924 7.37995C15.9924 7.57136 12.091 9.31658 9.12995 12.0705C9.18415 12.1022 9.23581 12.1401 9.28401 12.1843L11.3393 14.0682C11.7048 14.4033 11.731 14.9736 11.3978 15.3412C11.0647 15.7086 10.4973 15.7351 10.1318 15.4L8.0765 13.5161C8.01165 13.4566 7.95745 13.3897 7.91398 13.3178C5.35363 16.2153 3.72257 19.9621 3.49366 24.0828C3.60043 24.0379 3.71775 24.0132 3.84071 24.0134L6.62189 24.0185C7.11646 24.0194 7.51726 24.4239 7.51636 24.9212C7.51545 25.4186 7.11318 25.8216 6.61852 25.8207L3.83744 25.8156C3.70939 25.8153 3.5877 25.788 3.47756 25.7391C3.63362 30.0629 5.33234 33.9938 8.03603 36.9906L10.3159 34.6252C10.6601 34.268 11.2279 34.2591 11.5831 34.6051C11.9383 34.9513 11.9472 35.5222 11.603 35.8793L9.30702 38.2614L9.30593 38.2627C12.2445 40.9231 16.0764 42.604 20.2914 42.7918L20.2505 39.9376C20.2434 39.4404 20.6391 39.0308 21.1336 39.0236C21.6282 39.0165 22.0355 39.4144 22.0426 39.9117L22.0837 42.7808ZM23.0982 19.5948V22.2984H18.9586V34.1548H15.4894V22.2984H11.3302L11.5667 19.5948H23.0982ZM24.9152 38.2003L27.1427 33.1934L22.9835 23.5001H26.3148L28.6802 29.4483L31.0062 23.5001H33.8053L27.7341 38.2003H24.9152ZM35.264 34.1548V23.8406C36.5255 23.8005 37.314 23.5802 37.7083 23.1796H38.4376V25.1023C39.5217 23.8606 40.6453 23.2397 41.8477 23.2397C43.0502 23.2397 43.7795 23.8206 44.2526 25.1624C45.5537 23.8806 46.776 23.2397 47.9783 23.2397C49.7127 23.2397 50.7577 24.5215 50.7577 26.6444V34.1548H47.5645V27.2452C47.5645 26.3441 47.2098 25.8834 46.4804 25.8834C45.8493 25.8834 45.3954 26.0235 44.5876 26.5043V34.1548H41.414V27.2853C41.414 26.344 41.0592 25.8834 40.3299 25.8834C39.6991 25.8834 39.2655 26.0235 38.4376 26.5043V34.1548H35.264ZM62.6636 29.5284H56.0599C56.1582 31.451 56.7502 32.0319 58.701 32.0319C59.7851 32.0319 60.5546 31.8716 62.0716 31.3109V33.7141C60.7319 34.2549 59.6078 34.4752 58.3263 34.4752C54.4629 34.4752 52.7285 32.7328 52.7285 28.8674C52.7285 26.7646 53.2606 25.3627 54.4038 24.3613C55.3105 23.5602 56.4737 23.1796 57.9325 23.1796C61.0666 23.1796 62.6636 25.0222 62.6636 28.6071V29.5284ZM56.0399 27.746H59.4705C59.3913 25.9836 58.9966 25.3827 57.8734 25.3827C56.6911 25.3827 56.1581 26.0636 56.0399 27.746ZM35.6276 45.1384V36.2773H41.5897V37.9228H37.7389V40.1411H40.9539V41.7013H37.7389V45.1384H35.6276ZM45.2126 45.1384H43.2813V37.6059H42.4895V36.2408H43.0293C43.9411 36.2408 44.3489 36.1554 44.6488 35.9239H45.2126V45.1384ZM48.092 35.8142C48.6914 35.8142 49.1234 36.253 49.1234 36.8502C49.1234 37.4596 48.6914 37.8985 48.1039 37.8985C47.5036 37.8985 47.0725 37.4596 47.0725 36.838C47.0725 36.253 47.5163 35.8142 48.092 35.8142ZM49.0752 45.1384H47.1444V40.1411H46.364V38.7638H46.8924C47.7919 38.7638 48.2003 38.6906 48.5113 38.4591H49.0752V45.1384ZM55.5297 43.432V44.8702C54.9058 45.1994 54.3419 45.3334 53.6344 45.3334C51.4389 45.3334 50.3475 44.1877 50.3475 41.8841C50.3475 39.5926 51.4389 38.4591 53.6344 38.4591C54.2583 38.4591 54.7494 38.5444 55.4815 38.776V40.3605C54.6302 40.0193 54.3419 39.9461 53.8017 39.9461C52.6867 39.9461 52.3629 40.3727 52.3629 41.8962C52.3629 43.4198 52.6867 43.8464 53.8381 43.8464C54.402 43.8464 54.7139 43.7733 55.5297 43.432ZM56.8011 45.1384V36.3139C57.5451 36.3017 58.049 36.1676 58.2891 35.9239H58.7329V41.2869L60.7237 38.6541H62.7518L60.6764 41.0918L62.9437 45.1384H60.8438L59.3568 42.5179L58.7329 43.298V45.1384H56.8011Z" fill="#9966CC"/>
</svg>
