<svg width="14" height="6" viewBox="0 0 14 6" fill="none" xmlns="http://www.w3.org/2000/svg">
<g opacity="0.5">
<path d="M4.79176 5.41667C3.99726 5.41667 2.81951 5.1835 1.82243 4.46558C0.793427 3.72467 9.44138e-05 2.49537 9.44138e-05 0.625C9.44138e-05 0.279825 0.279927 0 0.625094 0C0.970261 0 1.25009 0.279825 1.25009 0.625C1.25009 2.08797 1.84568 2.942 2.55276 3.45108C3.29176 3.98317 4.19734 4.16667 4.79176 4.16667H11.6162L12.2412 4.79167L11.6162 5.41667H4.79176Z" fill="#1C274C"/>
<path d="M13.728 4.95652C13.763 4.82777 13.7562 4.69011 13.7075 4.56494C13.735 4.63527 13.75 4.71177 13.75 4.79177C13.75 4.84877 13.7423 4.90402 13.728 4.95652Z" fill="#1C274C"/>
</g>
</svg>
