<svg width="32" height="32" viewBox="0 0 32 32" fill="none" xmlns="http://www.w3.org/2000/svg">
<path d="M12.7975 15.9035L14.9357 13.7658C12.4478 12.6224 9.40173 13.0733 7.3551 15.1204C4.72929 17.7458 4.72929 22.0187 7.3551 24.645C9.98041 27.2709 14.2539 27.2709 16.8792 24.645C18.9259 22.5984 19.3772 19.5519 18.2339 17.0639L16.0957 19.2021C16.307 20.4506 15.9362 21.7786 14.9745 22.7398C13.3989 24.3159 10.8355 24.3159 9.25991 22.7398C7.68429 21.1642 7.68429 18.6008 9.25991 17.0256C10.2215 16.0635 11.5495 15.6921 12.7975 15.9035Z" fill="#FFB600"/>
<path d="M20.2267 15.0716C22.3719 18.6888 21.8918 23.4428 18.7844 26.5497C15.1078 30.2263 9.12648 30.2263 5.45036 26.5497C1.77373 22.8737 1.77373 16.8918 5.45036 13.2152C8.5568 10.1083 13.3113 9.62815 16.9285 11.773L18.8795 9.8214C14.1678 6.65309 7.70736 7.14828 3.54511 11.31C-1.1817 16.0363 -1.1817 23.7281 3.54511 28.4544C8.27198 33.1818 15.9628 33.1818 20.6896 28.4544C24.8523 24.2922 25.347 17.8318 22.1777 13.1195L20.2267 15.0716Z" fill="#FFB600"/>
<path d="M31.9551 5.30238C31.8545 5.04019 31.5999 4.87863 31.3115 4.89176L26.9012 5.09863L27.1085 0.688882C27.1211 0.400007 26.9595 0.146382 26.6974 0.0447571C26.4368 -0.0558679 26.1273 0.0165696 25.9149 0.227945L21.2087 4.93457L20.9707 10.0172L12.4148 18.5725C11.9795 18.4739 11.5045 18.5906 11.1653 18.9298C10.6389 19.4561 10.6389 20.3086 11.1653 20.835C11.6912 21.3614 12.5442 21.3614 13.0705 20.835C13.4092 20.4958 13.5265 20.0208 13.4278 19.585L21.9832 11.0291L27.0653 10.7916L31.772 6.08438C31.9839 5.87257 32.0558 5.56401 31.9551 5.30238Z" fill="#FFB600"/>
</svg>
