<svg width="137" height="137" viewBox="0 0 137 137" fill="none" xmlns="http://www.w3.org/2000/svg">
<path fill-rule="evenodd" clip-rule="evenodd" d="M68.25 124.5C99.316 124.5 124.5 99.316 124.5 68.25C124.5 37.184 99.316 12 68.25 12C37.184 12 12 37.184 12 68.25C12 99.316 37.184 124.5 68.25 124.5ZM91.2213 60.3591C93.7668 58.0277 93.9404 54.0743 91.6091 51.5287C89.2777 48.9832 85.3243 48.8096 82.7787 51.1409L59.7033 72.2748L53.7213 66.7962C51.1758 64.4648 47.2223 64.6384 44.8909 67.1839C42.5596 69.7295 42.7332 73.6829 45.2787 76.0143L55.482 85.3591C57.8709 87.547 61.5356 87.547 63.9245 85.3591L91.2213 60.3591Z" fill="#1FC16B"/>
<path d="M68.25 6C102.63 6 130.5 33.8703 130.5 68.25C130.5 102.63 102.63 130.5 68.25 130.5C33.8703 130.5 6 102.63 6 68.25C6 33.8703 33.8703 6 68.25 6ZM87.1846 55.5811C87.0913 55.4793 86.9329 55.4722 86.8311 55.5654L63.7559 76.6992L59.7031 80.4111L55.6504 76.6992L49.6689 71.2207C49.5671 71.1275 49.4087 71.1345 49.3154 71.2363C49.2223 71.3381 49.2293 71.4966 49.3311 71.5898L59.5342 80.9346C59.6297 81.022 59.7765 81.022 59.8721 80.9346L87.1689 55.9346C87.2708 55.8413 87.2778 55.6829 87.1846 55.5811Z" stroke="#84EBB4" stroke-opacity="0.3" stroke-width="12"/>
</svg>
