<svg width="154" height="154" viewBox="0 0 154 154" fill="none" xmlns="http://www.w3.org/2000/svg">
<path fill-rule="evenodd" clip-rule="evenodd" d="M76.667 126.667C104.281 126.667 126.667 104.281 126.667 76.6665C126.667 49.0523 104.281 26.6665 76.667 26.6665C49.0528 26.6665 26.667 49.0523 26.667 76.6665C26.667 104.281 49.0528 126.667 76.667 126.667ZM97.0859 69.6523C99.3486 67.58 99.5029 64.0658 97.4306 61.8032C95.3583 59.5405 91.8441 59.3861 89.5814 61.4584L74.3872 75.3742C71.378 78.1302 66.7618 78.1302 63.7526 75.3742C61.4899 73.3019 57.9757 73.4562 55.9034 75.7189C53.8311 77.9816 53.9854 81.4958 56.2481 83.5681L65.3176 91.8746C67.4411 93.8194 70.6986 93.8194 72.8221 91.8746L97.0859 69.6523Z" fill="#1FC16B"/>
<path d="M76.667 13.3335C111.645 13.3335 140 41.6885 140 76.6665C140 111.645 111.645 140 76.667 140C41.689 140 13.334 111.645 13.334 76.6665C13.334 41.6885 41.689 13.3335 76.667 13.3335Z" stroke="#1FC16B" stroke-opacity="0.1" stroke-width="26.6667"/>
</svg>
