<svg width="15" height="21" viewBox="0 0 15 21" fill="none" xmlns="http://www.w3.org/2000/svg">
<path d="M8.23653 1C8.23653 0.447715 7.78881 0 7.23653 0C6.68424 0 6.23653 0.447715 6.23653 1V2.5C6.23653 2.52773 6.23766 2.5552 6.23987 2.58237C3.40051 3.05688 1.23653 5.52474 1.23653 8.4989V12.5C1.23653 13.0002 0.826416 13.8676 0.377616 14.6671C-0.253907 15.7921 -0.138249 17.1484 1.06743 17.6075C2.28005 18.0692 4.21978 18.5 7.23653 18.5C10.2533 18.5 12.193 18.0692 13.4056 17.6075C14.6113 17.1484 14.727 15.7921 14.0954 14.6671C13.6466 13.8676 13.2365 13.0002 13.2365 12.5V8.49938C13.2365 5.52522 11.0725 3.05698 8.23318 2.58238C8.2354 2.55521 8.23653 2.52774 8.23653 2.5V1Z" fill="#3B7C0F"/>
<path d="M4.15663 19.3246C4.19396 19.3572 4.23903 19.3952 4.29154 19.4372C4.44183 19.5574 4.65654 19.7132 4.92791 19.8683C5.46647 20.176 6.26277 20.5 7.23654 20.5C8.21032 20.5 9.00661 20.176 9.54518 19.8683C9.81654 19.7132 10.0313 19.5574 10.1816 19.4372C10.2341 19.3952 10.2791 19.3572 10.3165 19.3246C9.44211 19.4335 8.42256 19.5 7.23654 19.5C6.05053 19.5 5.03098 19.4335 4.15663 19.3246Z" fill="#3B7C0F"/>
</svg>
