<svg width="17" height="15" viewBox="0 0 17 15" fill="none" xmlns="http://www.w3.org/2000/svg">
<path fill-rule="evenodd" clip-rule="evenodd" d="M9.74539 0C6.98397 0 4.74539 2.23858 4.74539 5C4.74539 7.76142 6.98397 10 9.74539 10C12.5068 10 14.7454 7.76142 14.7454 5C14.7454 2.23858 12.5068 0 9.74539 0ZM6.41206 5C6.41206 3.15905 7.90444 1.66667 9.74539 1.66667C11.5863 1.66667 13.0787 3.15905 13.0787 5C13.0787 6.84095 11.5863 8.33333 9.74539 8.33333C7.90444 8.33333 6.41206 6.84095 6.41206 5Z" fill="#8898AA"/>
<path d="M4.8749 14.606C4.63226 14.9971 4.11853 15.1174 3.72744 14.8748C3.33636 14.6321 3.21603 14.1184 3.45867 13.7273C4.59983 11.888 6.93439 10 9.74539 10C12.5564 10 14.891 11.888 16.0321 13.7273C16.2748 14.1184 16.1544 14.6321 15.7634 14.8748C15.3723 15.1174 14.8586 14.9971 14.6159 14.606C13.6808 13.0988 11.8157 11.6667 9.7454 11.6667C7.67512 11.6667 5.81002 13.0988 4.8749 14.606Z" fill="#8898AA"/>
<path d="M4.66028 2.96643C4.86291 3.37966 4.69219 3.87891 4.27896 4.08155C3.52174 4.45287 3.07873 5.12649 3.07873 5.83333C3.07873 6.54017 3.52174 7.2138 4.27896 7.58512C4.69219 7.78775 4.86291 8.28701 4.66028 8.70024C4.45764 9.11346 3.95839 9.28418 3.54516 9.08155C2.31449 8.47806 1.41206 7.27794 1.41206 5.83333C1.41206 4.38872 2.31449 3.1886 3.54516 2.58512C3.95839 2.38248 4.45764 2.5532 4.66028 2.96643Z" fill="#8898AA"/>
<path d="M1.54156 14.606C1.29892 14.9971 0.785192 15.1174 0.39411 14.8748C0.00302908 14.6321 -0.117307 14.1184 0.125332 13.7273C0.607911 12.9495 1.38002 12.3003 2.24142 11.7966C2.63872 11.5643 3.14913 11.698 3.38145 12.0953C3.61376 12.4926 3.48002 13.003 3.08272 13.2354C2.36296 13.6562 1.8334 14.1356 1.54156 14.606Z" fill="#8898AA"/>
</svg>
