<svg width="15" height="18" viewBox="0 0 15 18" fill="none" xmlns="http://www.w3.org/2000/svg">
<path d="M4.16667 4.16667C3.70643 4.16667 3.33333 4.53976 3.33333 5C3.33333 5.46024 3.70643 5.83333 4.16667 5.83333H10.8333C11.2936 5.83333 11.6667 5.46024 11.6667 5C11.6667 4.53976 11.2936 4.16667 10.8333 4.16667H4.16667Z" fill="#8898AA"/>
<path d="M3.33333 9.16667C3.33333 8.70643 3.70643 8.33333 4.16667 8.33333H10.8333C11.2936 8.33333 11.6667 8.70643 11.6667 9.16667C11.6667 9.6269 11.2936 10 10.8333 10H4.16667C3.70643 10 3.33333 9.6269 3.33333 9.16667Z" fill="#8898AA"/>
<path d="M4.16667 12.5C3.70643 12.5 3.33333 12.8731 3.33333 13.3333C3.33333 13.7936 3.70643 14.1667 4.16667 14.1667H6.38889C6.84913 14.1667 7.22222 13.7936 7.22222 13.3333C7.22222 12.8731 6.84913 12.5 6.38889 12.5H4.16667Z" fill="#8898AA"/>
<path d="M8.61111 12.5C8.15087 12.5 7.77778 12.8731 7.77778 13.3333C7.77778 13.7936 8.15087 14.1667 8.61111 14.1667H10.8333C11.2936 14.1667 11.6667 13.7936 11.6667 13.3333C11.6667 12.8731 11.2936 12.5 10.8333 12.5H8.61111Z" fill="#8898AA"/>
<path fill-rule="evenodd" clip-rule="evenodd" d="M10.4015 17.4177C10.4952 17.4411 10.5861 17.4747 10.6724 17.5179C12.6607 18.512 15 17.0662 15 14.8433V3.33333C15 1.49238 13.5076 0 11.6667 0H3.33333C1.49238 0 0 1.49238 0 3.33333V14.8433C0 17.0662 2.33933 18.512 4.32757 17.5179C4.41395 17.4747 4.50479 17.4411 4.59848 17.4177L7.09577 16.7934C7.36117 16.727 7.63883 16.727 7.90423 16.7934L10.4015 17.4177ZM1.66667 3.33333C1.66667 2.41286 2.41286 1.66667 3.33333 1.66667H11.6667C12.5871 1.66667 13.3333 2.41286 13.3333 3.33333V14.8433C13.3333 15.8273 12.2979 16.4672 11.4178 16.0272C11.2226 15.9296 11.0174 15.8537 10.8057 15.8008L8.30845 15.1765C7.77765 15.0438 7.22235 15.0438 6.69155 15.1765L4.19426 15.8008C3.98259 15.8537 3.77736 15.9296 3.58221 16.0272C2.70214 16.4672 1.66667 15.8273 1.66667 14.8433V3.33333Z" fill="#8898AA"/>
</svg>
