<svg width="20" height="20" viewBox="0 0 20 20" fill="none" xmlns="http://www.w3.org/2000/svg">
<path d="M5.0013 8.33366C5.0013 7.87342 5.3744 7.50033 5.83464 7.50033H10.0013C10.4615 7.50033 10.8346 7.87342 10.8346 8.33366C10.8346 8.7939 10.4615 9.16699 10.0013 9.16699H5.83464C5.3744 9.16699 5.0013 8.7939 5.0013 8.33366Z" fill="#66C61C"/>
<path d="M5.83464 10.8337C5.3744 10.8337 5.0013 11.2068 5.0013 11.667C5.0013 12.1272 5.3744 12.5003 5.83464 12.5003H13.3346C13.7949 12.5003 14.168 12.1272 14.168 11.667C14.168 11.2068 13.7949 10.8337 13.3346 10.8337H5.83464Z" fill="#66C61C"/>
<path fill-rule="evenodd" clip-rule="evenodd" d="M1.66797 10.0003C1.66797 5.39795 5.39893 1.66699 10.0013 1.66699C14.6037 1.66699 18.3346 5.39795 18.3346 10.0003C18.3346 14.6027 14.6037 18.3337 10.0013 18.3337C9.3077 18.3337 8.63279 18.2487 7.98688 18.0883L3.36694 17.5108C2.36838 17.386 1.67441 16.4552 1.83985 15.4626L2.12559 13.7481C2.12725 13.7382 2.12745 13.7281 2.1262 13.7181L1.91329 12.0148C1.75289 11.3688 1.66797 10.6939 1.66797 10.0003ZM10.0013 3.33366C6.3194 3.33366 3.33464 6.31843 3.33464 10.0003C3.33464 10.5725 3.40651 11.1266 3.54131 11.6547L3.55426 11.7055L3.78 13.5114C3.80123 13.6812 3.79772 13.8533 3.76958 14.0221L3.48384 15.7366C3.47411 15.795 3.51493 15.8497 3.57367 15.8571L8.29617 16.4474L8.34692 16.4603C8.87504 16.5951 9.42918 16.667 10.0013 16.667C13.6832 16.667 16.668 13.6822 16.668 10.0003C16.668 6.31843 13.6832 3.33366 10.0013 3.33366Z" fill="#66C61C"/>
</svg>
