<svg width="24" height="24" viewBox="0 0 24 24" fill="none" xmlns="http://www.w3.org/2000/svg">
<path d="M10.1934 2.74609C11.2005 1.77176 12.7994 1.77187 13.8066 2.74609C14.3826 3.30331 15.184 3.56341 15.9775 3.45117C17.3649 3.25521 18.6583 4.19504 18.9004 5.5752C19.0389 6.36452 19.5333 7.04626 20.2412 7.42188C21.479 8.07863 21.9735 9.59845 21.3584 10.8574C21.0064 11.5774 21.0064 12.4197 21.3584 13.1396C21.9739 14.3987 21.4792 15.9193 20.2412 16.5762C19.5335 16.9517 19.0389 17.6328 18.9004 18.4219C18.6583 19.8021 17.365 20.7419 15.9775 20.5459C15.1841 20.4337 14.3826 20.6938 13.8066 21.251C12.7994 22.2254 11.2006 22.2254 10.1934 21.251C9.61743 20.694 8.81677 20.4337 8.02344 20.5459C6.63581 20.7422 5.34272 19.8022 5.10059 18.4219C4.96204 17.6327 4.46662 16.9517 3.75879 16.5762C2.52082 15.9193 2.02712 14.3987 2.64258 13.1396C2.99441 12.4197 2.99449 11.5773 2.64258 10.8574C2.0273 9.59847 2.52102 8.07874 3.75879 7.42188C4.46672 7.04627 4.96212 6.36455 5.10059 5.5752C5.3428 4.19493 6.63587 3.25491 8.02344 3.45117C8.81691 3.56337 9.6174 3.30328 10.1934 2.74609ZM12 6.99902C9.23865 6.99911 7 9.23765 7 11.999C7.00012 14.7603 9.23872 16.9989 12 16.999C14.7614 16.999 16.9999 14.7603 17 11.999C17 9.2376 14.7614 6.99902 12 6.99902Z" fill="#326212"/>
</svg>
