<svg width="24" height="24" viewBox="0 0 24 24" fill="none" xmlns="http://www.w3.org/2000/svg">
<path fill-rule="evenodd" clip-rule="evenodd" d="M11.9994 5.99881C8.68567 5.99881 5.99938 8.6851 5.99938 11.9988C5.99938 15.3125 8.68567 17.9988 11.9994 17.9988C15.3131 17.9988 17.9994 15.3125 17.9994 11.9988C17.9994 8.6851 15.3131 5.99881 11.9994 5.99881ZM7.99938 11.9988C7.99938 9.78967 9.79024 7.99881 11.9994 7.99881C14.2085 7.99881 15.9994 9.78967 15.9994 11.9988C15.9994 14.2079 14.2085 15.9988 11.9994 15.9988C9.79024 15.9988 7.99938 14.2079 7.99938 11.9988Z" fill="#4F5E6E"/>
<path fill-rule="evenodd" clip-rule="evenodd" d="M14.5012 2.02771C13.1063 0.678263 10.8925 0.678263 9.49757 2.02771C9.14327 2.37046 8.65062 2.53053 8.16252 2.46149C6.24082 2.18968 4.44984 3.49091 4.11451 5.40255C4.02934 5.88809 3.72487 6.30716 3.2894 6.53821C1.57495 7.44785 0.890854 9.55328 1.7432 11.2969C1.95969 11.7398 1.95969 12.2578 1.7432 12.7007C0.890854 14.4443 1.57495 16.5498 3.2894 17.4594C3.72487 17.6905 4.02934 18.1095 4.11451 18.5951C4.44984 20.5067 6.24083 21.8079 8.16252 21.5361C8.65062 21.4671 9.14327 21.6272 9.49757 21.9699C10.8925 23.3194 13.1063 23.3194 14.5012 21.9699C14.8555 21.6272 15.3481 21.4671 15.8362 21.5361C17.7579 21.8079 19.5489 20.5067 19.8843 18.5951C19.9694 18.1095 20.2739 17.6905 20.7094 17.4594C22.4238 16.5498 23.1079 14.4443 22.2556 12.7007C22.0391 12.2578 22.0391 11.7398 22.2556 11.2969C23.1079 9.55328 22.4238 7.44785 20.7094 6.53821C20.2739 6.30716 19.9694 5.88809 19.8843 5.40255C19.5489 3.49091 17.7579 2.18968 15.8362 2.46149C15.3481 2.53053 14.8555 2.37046 14.5012 2.02771ZM10.8882 3.46516C11.5077 2.86578 12.491 2.86578 13.1106 3.46516C13.9083 4.23683 15.0174 4.59722 16.1163 4.44178C16.9699 4.32105 17.7654 4.89901 17.9143 5.7481C18.1061 6.84126 18.7916 7.78476 19.772 8.30493C20.5335 8.70897 20.8373 9.64413 20.4587 10.4186C19.9713 11.4157 19.9713 12.5819 20.4587 13.579C20.8373 14.3535 20.5335 15.2887 19.772 15.6927C18.7916 16.2129 18.1061 17.1564 17.9143 18.2495C17.7654 19.0986 16.9699 19.6766 16.1163 19.5558C15.0174 19.4004 13.9083 19.7608 13.1106 20.5325C12.491 21.1318 11.5077 21.1318 10.8882 20.5325C10.0905 19.7608 8.98134 19.4004 7.88242 19.5558C7.02887 19.6766 6.23337 19.0986 6.08443 18.2495C5.89268 17.1564 5.20718 16.2129 4.22678 15.6927C3.46528 15.2887 3.16143 14.3535 3.54001 13.579C4.02742 12.5819 4.02742 11.4157 3.54001 10.4186C3.16143 9.64413 3.46528 8.70897 4.22678 8.30493C5.20718 7.78476 5.89268 6.84126 6.08443 5.7481C6.23337 4.89901 7.02887 4.32105 7.88242 4.44178C8.98134 4.59722 10.0905 4.23683 10.8882 3.46516Z" fill="#4F5E6E"/>
</svg>
