<svg width="22" height="17" viewBox="0 0 22 17" fill="none" xmlns="http://www.w3.org/2000/svg">
<path d="M11.0002 8C13.2094 8 15.0002 6.20914 15.0002 4C15.0002 1.79086 13.2094 0 11.0002 0C8.79108 0 7.00022 1.79086 7.00022 4C7.00022 6.20914 8.79108 8 11.0002 8Z" fill="#326212"/>
<path d="M5.26221 13C3.84227 15.6701 8.54256 17 11.0002 17C13.4579 17 18.1582 15.6701 16.7382 13C15.6704 10.9921 13.5106 9 11.0002 9C8.48984 9 6.33002 10.9921 5.26221 13Z" fill="#326212"/>
<path d="M6.50022 7C6.50022 8.10457 5.60479 9 4.50022 9C3.39565 9 2.50022 8.10457 2.50022 7C2.50022 5.89543 3.39565 5 4.50022 5C5.60479 5 6.50022 5.89543 6.50022 7Z" fill="#326212"/>
<path d="M1.89595 14.4446C1.65041 14.9393 1.05033 15.1413 0.555629 14.8957C0.060929 14.6502 -0.141053 14.0501 0.104488 13.5554C0.471873 12.8152 1.02795 12.0721 1.72747 11.5034C2.42726 10.9346 3.32399 10.5 4.34739 10.5C4.89968 10.5 5.34739 10.9477 5.34739 11.5C5.34739 12.0523 4.89968 12.5 4.34739 12.5C3.90641 12.5 3.441 12.688 2.98902 13.0554C2.53678 13.423 2.15146 13.9298 1.89595 14.4446Z" fill="#326212"/>
<path d="M19.8103 7C19.8103 8.10457 18.9149 9 17.8103 9C16.7057 9 15.8103 8.10457 15.8103 7C15.8103 5.89543 16.7057 5 17.8103 5C18.9149 5 19.8103 5.89543 19.8103 7Z" fill="#326212"/>
<path d="M21.9004 13.5554C22.1459 14.0501 21.9439 14.6502 21.4492 14.8957C20.9545 15.1413 20.3544 14.9393 20.1089 14.4446C19.8534 13.9298 19.4681 13.423 19.0158 13.0554C18.5638 12.688 18.0984 12.5 17.6574 12.5C17.1052 12.5 16.6574 12.0523 16.6574 11.5C16.6574 10.9477 17.1052 10.5 17.6574 10.5C18.6809 10.5 19.5776 10.9346 20.2774 11.5034C20.9769 12.0721 21.533 12.8152 21.9004 13.5554Z" fill="#326212"/>
</svg>
