<svg width="20" height="20" viewBox="0 0 20 20" fill="none" xmlns="http://www.w3.org/2000/svg">
<path d="M10.0013 7.08366C10.0013 6.62342 9.62821 6.25033 9.16797 6.25033C8.70773 6.25033 8.33464 6.62342 8.33464 7.08366V11.2503C8.33464 11.7106 8.70773 12.0837 9.16797 12.0837H11.668C12.1282 12.0837 12.5013 11.7106 12.5013 11.2503C12.5013 10.7901 12.1282 10.417 11.668 10.417H10.0013V7.08366Z" fill="#8898AA"/>
<path fill-rule="evenodd" clip-rule="evenodd" d="M10.0013 1.66699C5.39893 1.66699 1.66797 5.39795 1.66797 10.0003C1.66797 14.6027 5.39893 18.3337 10.0013 18.3337C14.6037 18.3337 18.3346 14.6027 18.3346 10.0003C18.3346 5.39795 14.6037 1.66699 10.0013 1.66699ZM3.33464 10.0003C3.33464 6.31843 6.3194 3.33366 10.0013 3.33366C13.6832 3.33366 16.668 6.31843 16.668 10.0003C16.668 13.6822 13.6832 16.667 10.0013 16.667C6.3194 16.667 3.33464 13.6822 3.33464 10.0003Z" fill="#8898AA"/>
</svg>
