<svg width="24" height="24" viewBox="0 0 24 24" fill="none" xmlns="http://www.w3.org/2000/svg">
<path d="M12 13C14.2091 13 16 11.2091 16 9C16 6.79086 14.2091 5 12 5C9.79087 5 8.00001 6.79086 8.00001 9C8.00001 11.2091 9.79087 13 12 13Z" fill="#66C61C"/>
<path d="M6.262 18C4.84205 20.6701 9.54235 22 12 22C14.4577 22 19.158 20.6701 17.738 18C16.6702 15.9921 14.5104 14 12 14C9.48963 14 7.3298 15.9921 6.262 18Z" fill="#66C61C"/>
<path d="M7.50001 12C7.50001 13.1046 6.60458 14 5.50001 14C4.39544 14 3.50001 13.1046 3.50001 12C3.50001 10.8954 4.39544 10 5.50001 10C6.60458 10 7.50001 10.8954 7.50001 12Z" fill="#66C61C"/>
<path d="M2.89574 19.4446C2.6502 19.9393 2.05011 20.1413 1.55541 19.8957C1.06072 19.6502 0.858733 19.0501 1.10427 18.5554C1.47166 17.8152 2.02773 17.0721 2.72726 16.5034C3.42705 15.9346 4.32378 15.5 5.34718 15.5C5.89946 15.5 6.34718 15.9477 6.34718 16.5C6.34718 17.0523 5.89946 17.5 5.34718 17.5C4.9062 17.5 4.44078 17.688 3.98881 18.0554C3.53656 18.423 3.15124 18.9298 2.89574 19.4446Z" fill="#66C61C"/>
<path d="M20.8101 12C20.8101 13.1046 19.9146 14 18.8101 14C17.7055 14 16.8101 13.1046 16.8101 12C16.8101 10.8954 17.7055 10 18.8101 10C19.9146 10 20.8101 10.8954 20.8101 12Z" fill="#66C61C"/>
<path d="M22.9001 18.5554C23.1457 19.0501 22.9437 19.6502 22.449 19.8957C21.9543 20.1413 21.3542 19.9393 21.1087 19.4446C20.8532 18.9298 20.4679 18.423 20.0156 18.0554C19.5636 17.688 19.0982 17.5 18.6572 17.5C18.1049 17.5 17.6572 17.0523 17.6572 16.5C17.6572 15.9477 18.1049 15.5 18.6572 15.5C19.6806 15.5 20.5774 15.9346 21.2772 16.5034C21.9767 17.0721 22.5328 17.8152 22.9001 18.5554Z" fill="#66C61C"/>
</svg>
