<svg width="137" height="137" viewBox="0 0 137 137" fill="none" xmlns="http://www.w3.org/2000/svg">
<path d="M68.25 124.5C37.1827 124.5 12 99.3173 12 68.25C12 37.1827 37.1827 12 68.25 12C99.3173 12 124.5 37.1827 124.5 68.25C124.5 99.3173 99.3173 124.5 68.25 124.5ZM94.0428 51.8466C95.0986 50.7909 95.0986 49.0731 94.0428 48.0173L88.2966 42.2755C87.2409 41.2197 85.5231 41.2197 84.4673 42.2755L68.1937 58.549L51.9202 42.2755C50.8644 41.2197 49.1466 41.2197 48.0909 42.2755L42.3447 48.0173C41.2889 49.0731 41.2889 50.7909 42.3447 51.8466L58.6226 68.1245L42.3447 84.3938C41.2889 85.4495 41.2889 87.1673 42.3447 88.2231L48.0909 93.9692C49.1466 95.025 50.8644 95.025 51.9202 93.9692L68.1937 77.6913L84.4673 93.9692C85.5231 95.025 87.2409 95.025 88.2966 93.9692L94.0428 88.2231C95.0986 87.1673 95.0986 85.4495 94.0428 84.3938L77.7649 68.1245L94.0428 51.8466Z" fill="#D00416"/>
<path d="M68.25 6C102.631 6 130.5 33.869 130.5 68.25C130.5 102.631 102.631 130.5 68.25 130.5C33.869 130.5 6 102.631 6 68.25C6 33.869 33.869 6 68.25 6ZM72.4365 62.792L68.1934 67.0342L50.0039 48.8447L48.916 49.9326L67.1094 68.126L62.8643 72.3682L48.915 86.3086L50.0049 87.3975L63.9502 73.4492L68.1934 69.2051L72.4365 73.4492L86.3818 87.3975L87.4707 86.3086L73.5234 72.3682L69.2783 68.126L73.5225 63.8818L87.4707 49.9316L86.3828 48.8447L72.4365 62.792ZM52.332 46.5195L52.3154 46.5352C52.3213 46.5294 52.3281 46.5244 52.334 46.5186L52.332 46.5195ZM84.0713 46.5352L84.0557 46.5195L84.0537 46.5186C84.0594 46.5243 84.0656 46.5295 84.0713 46.5352Z" stroke="#FB3748" stroke-opacity="0.1" stroke-width="12"/>
</svg>
