<svg width="4" height="20" viewBox="0 0 4 20" fill="none" xmlns="http://www.w3.org/2000/svg">
<path d="M4 10C4 10.3956 3.8827 10.7822 3.66294 11.1111C3.44318 11.44 3.13082 11.6964 2.76537 11.8478C2.39991 11.9991 1.99778 12.0387 1.60982 11.9616C1.22186 11.8844 0.865491 11.6939 0.585786 11.4142C0.306081 11.1345 0.115598 10.7781 0.0384281 10.3902C-0.0387425 10.0022 0.000864267 9.60009 0.15224 9.23463C0.303615 8.86918 0.55996 8.55682 0.888859 8.33706C1.21776 8.1173 1.60444 8 2 8C2.53043 8 3.03914 8.21071 3.41421 8.58579C3.78928 8.96086 4 9.46957 4 10ZM-9.53674e-07 2C-9.53674e-07 2.39556 0.117297 2.78224 0.33706 3.11114C0.556823 3.44004 0.86918 3.69638 1.23463 3.84776C1.60008 3.99913 2.00222 4.03874 2.39018 3.96157C2.77814 3.8844 3.13451 3.69392 3.41421 3.41421C3.69392 3.13451 3.8844 2.77814 3.96157 2.39018C4.03874 2.00222 3.99913 1.60009 3.84776 1.23463C3.69638 0.869181 3.44004 0.556823 3.11114 0.337061C2.78224 0.117298 2.39556 0 2 0C1.46957 0 0.960858 0.210714 0.585786 0.585786C0.210713 0.960859 -9.53674e-07 1.46957 -9.53674e-07 2ZM4 18C4 17.6044 3.8827 17.2178 3.66294 16.8889C3.44318 16.56 3.13082 16.3036 2.76537 16.1522C2.39991 16.0009 1.99778 15.9613 1.60982 16.0384C1.22186 16.1156 0.865491 16.3061 0.585786 16.5858C0.306081 16.8655 0.115598 17.2219 0.0384281 17.6098C-0.0387425 17.9978 0.000864267 18.3999 0.15224 18.7654C0.303615 19.1308 0.55996 19.4432 0.888859 19.6629C1.21776 19.8827 1.60444 20 2 20C2.53043 20 3.03914 19.7893 3.41421 19.4142C3.78928 19.0391 4 18.5304 4 18Z" fill="black"/>
</svg>
