<svg width="16" height="16" viewBox="0 0 16 16" fill="none" xmlns="http://www.w3.org/2000/svg">
<path fill-rule="evenodd" clip-rule="evenodd" d="M8 14C11.3137 14 14 11.3137 14 8C14 4.68629 11.3137 2 8 2C4.68629 2 2 4.68629 2 8C2 11.3137 4.68629 14 8 14ZM8 5.66667C8 5.29848 7.70152 5 7.33333 5C6.96514 5 6.66667 5.29848 6.66667 5.66667V9C6.66667 9.36819 6.96514 9.66667 7.33333 9.66667H9.33333C9.70152 9.66667 10 9.36819 10 9C10 8.63181 9.70152 8.33333 9.33333 8.33333H8V5.66667Z" fill="#0B0D0F"/>
</svg>
